<?xml version="1.0" encoding="UTF-8"?>
<svg xmlns="http://www.w3.org/2000/svg" width="180" height="180" viewBox="0 0 180 180" role="img" aria-labelledby="title desc">
  <title id="title">Fare</title>
  <desc id="desc">A segmented nutrition plate.</desc>
  <rect width="180" height="180" fill="#1B1714"/>
  <circle cx="90" cy="90" r="74.9" fill="#F4E9D3"/>
  <circle cx="90" cy="90" r="65.7" fill="#251E19"/>
  <path d="M90 90 57.7 34.3A64.3 64.3 0 0 1 154.3 90Z" fill="#F36A2E"/>
  <path d="M90 90h64.3a64.3 64.3 0 0 1-32.2 55.7Z" fill="#3568D4"/>
  <path d="M90 90 122.1 145.7a64.3 64.3 0 0 1-64.3 0Z" fill="#F1B94F"/>
  <path d="M90 90 57.8 145.7A64.3 64.3 0 0 1 57.7 34.3Z" fill="#7557C8"/>
  <g fill="none" stroke="#251E19" stroke-width="4.2" stroke-linecap="round">
    <path d="M90 90 57.7 34.3"/>
    <path d="M90 90h64.3"/>
    <path d="M90 90 122.1 145.7"/>
    <path d="M90 90 57.8 145.7"/>
  </g>
  <circle cx="90" cy="90" r="9" fill="#251E19"/>
  <circle cx="90" cy="90" r="3.2" fill="#F4E9D3"/>
</svg>
