<?xml version="1.0" encoding="UTF-8"?>
<svg xmlns="http://www.w3.org/2000/svg" width="1200" height="630" viewBox="0 0 1200 630" role="img" aria-labelledby="title desc">
  <title id="title">Fare — food memory, made useful</title>
  <desc id="desc">Fare calorie and macro tracker branding with a colorful segmented plate.</desc>
  <rect width="1200" height="630" fill="#1B1714"/>
  <circle cx="1036" cy="-8" r="300" fill="#F36A2E" opacity=".16"/>
  <circle cx="1090" cy="588" r="252" fill="#3568D4" opacity=".14"/>
  <g transform="translate(756 91)">
    <circle cx="224" cy="224" r="224" fill="#F4E9D3"/>
    <circle cx="224" cy="224" r="194" fill="#251E19"/>
    <path d="M224 224 127 56a194 194 0 0 1 291 168Z" fill="#F36A2E"/>
    <path d="M224 224h194a194 194 0 0 1-97 168Z" fill="#3568D4"/>
    <path d="M224 224 321 392a194 194 0 0 1-194 0Z" fill="#F1B94F"/>
    <path d="M224 224 127 392a194 194 0 0 1 0-336Z" fill="#7557C8"/>
    <g fill="none" stroke="#251E19" stroke-width="12" stroke-linecap="round">
      <path d="M224 224 127 56"/>
      <path d="M224 224h194"/>
      <path d="M224 224 321 392"/>
      <path d="M224 224 127 392"/>
    </g>
    <circle cx="224" cy="224" r="27" fill="#251E19"/>
    <circle cx="224" cy="224" r="9" fill="#F4E9D3"/>
  </g>
  <g font-family="Inter, ui-sans-serif, -apple-system, BlinkMacSystemFont, 'Segoe UI', sans-serif">
    <text x="86" y="203" fill="#F4E9D3" font-size="112" font-weight="760" letter-spacing="-5">Fare</text>
    <text x="92" y="285" fill="#F4E9D3" font-size="34" font-weight="580" letter-spacing="-.5">Food memory, made useful.</text>
    <text x="92" y="348" fill="#BFB4A2" font-size="25" font-weight="450">Log once. Find it faster next time.</text>
    <g transform="translate(92 431)">
      <circle cx="9" cy="-8" r="9" fill="#F36A2E"/>
      <text x="29" y="0" fill="#D9CDBA" font-size="20" font-weight="600">Calories</text>
      <circle cx="151" cy="-8" r="9" fill="#3568D4"/>
      <text x="171" y="0" fill="#D9CDBA" font-size="20" font-weight="600">Protein</text>
      <circle cx="277" cy="-8" r="9" fill="#F1B94F"/>
      <text x="297" y="0" fill="#D9CDBA" font-size="20" font-weight="600">Carbs</text>
      <circle cx="389" cy="-8" r="9" fill="#7557C8"/>
      <text x="409" y="0" fill="#D9CDBA" font-size="20" font-weight="600">Fat</text>
    </g>
  </g>
</svg>
